<?xml version="1.0" encoding="UTF-8"?>
<svg id="Calque_2" data-name="Calque 2" xmlns="http://www.w3.org/2000/svg" viewBox="0 0 21.98 42.41">
  <defs>
    <style>
      .cls-1 {
        fill: #b4a379;
      }
    </style>
  </defs>
  <g id="Calque_1-2" data-name="Calque 1">
    <g>
      <path class="cls-1" d="M16.54,0c.9,1.94,1.67,3.94,2.41,5.95,1.22,3.32,3.45,8.69,2.96,12.13-.73,5.1-5.64,7.97-10.14,9.35l-.04,10.33c.24,2.99,3,2.3,5.12,3.19.35.15.91.34.87.78-.51.16-1.04.27-1.58.35-2.87.42-6.67.42-9.55.1-.73-.08-1.64-.19-2.28-.5-.09-.43,1.44-.87,1.79-.98,2.24-.7,4-.26,4.21-3.22v-9.93s-.09-.18-.09-.18C5.58,26.11.41,22.83.02,17.55-.24,14.05,2.39,7.6,3.71,4.17,3.91,3.64,5.25.16,5.47.03l11.07-.03ZM6.51,1.52c-.14.05-.19.25-.25.37-.53,1.04-1,2.47-1.42,3.59-.98,2.63-2.2,5.77-2.9,8.45-1.2,4.58.41,7.78,4.34,10.14.89.53,3.92,2,4.84,1.91,1.58-.16,4.94-1.99,6.19-3.02,5.34-4.39,2.59-9.78.67-15.15-.75-2.11-1.54-4.21-2.41-6.26l-9.06-.03Z"/>
      <path class="cls-1" d="M18.79,13.49c1.34,3.68.48,6.74-2.65,9.01-1.01.74-3.84,2.27-5.03,2.39-.76.08-3.57-1.31-4.32-1.77-3.63-2.21-5-5.09-3.7-9.3.08-.25.11-.59.35-.72.74-.4,3-.36,3.85-.23,1.74.25,3.28,1.17,4.97,1.55,2.26.52,4.52.23,6.53-.94Z"/>
    </g>
  </g>
</svg>