<?xml version="1.0" encoding="UTF-8"?>
<svg id="Calque_2" data-name="Calque 2" xmlns="http://www.w3.org/2000/svg" viewBox="0 0 306.7 157.16">
  <defs>
    <style>
      .cls-1 {
        stroke: #000;
        stroke-miterlimit: 10;
        stroke-width: 2px;
      }
    </style>
  </defs>
  <g id="Calque_1-2" data-name="Calque 1">
    <g>
      <path d="M35.31,27.44c0-10.92,8.15-19.67,19.78-19.67,4.84,0,10,1.41,12.12,2.83l.22,6.41-.54.11c-2.01-4.67-7.01-8.37-13.37-8.37-7.82,0-13.69,5.38-13.8,15.38-.11,10.27,6.3,21.52,17.28,21.52,4.08,0,7.61-2.17,8.97-4.89l-.05-5.54c0-3.37-.43-4.67-2.77-5.27v-.65h7.12v10.21c-3.15,4.4-9.45,7.23-14.94,7.23-12.12,0-20-7.61-20-19.29Z"/>
      <path d="M74.54,45.48c1.68-.49,2.17-1.74,2.17-6.19v-12.5c0-3.8-.71-4.35-2.17-5v-.6l5.92-2.61.49.38v6.79c.87-2.12,2.34-3.97,3.97-5.16,1.68-1.25,3.59-1.96,6.19-1.96,2.17,0,3.53.54,3.53,1.47,0,1.2-1.2,3.1-3.15,3.1-1.47,0-3.59-.6-6.79-1.52-1.58,1.14-3.53,4.18-3.7,6.79h-.05v10.81c0,4.46.54,5.71,2.17,6.19v.71h-8.58v-.71Z"/>
      <path d="M113.39,44.55v-9.78c-1.68,6.68-6.25,11.95-11.63,11.95-4.02,0-7.61-2.45-7.61-7.12,0-5.65,5.71-7.77,12.17-9.56l7.06-1.9c-.27-5.27-2.99-7.72-7.61-7.72-3.26,0-6.41,1.52-9.13,4.84l-.49-.44c3.1-3.86,7.06-6.19,11.79-6.19,6.57,0,9.62,3.64,9.62,9.78v10.87c0,4.46.49,5.71,2.17,6.19v.71h-4.73c-1.09,0-1.63-.6-1.63-1.63ZM103.77,43.52c5.81,0,9.56-7.34,9.62-13.04v-1.63l-6.85,1.85c-4.02,1.14-8.37,2.93-8.31,7.39,0,3.53,2.45,5.43,5.54,5.43Z"/>
      <path d="M122.79,45.48c1.68-.49,2.17-1.74,2.17-6.19v-12.5c0-3.8-.65-4.35-2.17-5v-.6l5.98-2.61.43.38v4.67c3.15-2.55,7.34-5,11.52-5,5.32,0,8.58,3.1,8.58,9.45v11.19c0,4.46.54,5.71,2.17,6.19v.71h-8.58v-.71c1.68-.49,2.17-1.74,2.17-6.19v-10.11c0-5.65-2.39-8.75-7.17-8.75-2.99,0-5.92,1.79-8.69,4.08v14.78c0,4.46.54,5.71,2.17,6.19v.71h-8.58v-.71Z"/>
      <path d="M154.74,33.25c0-7.55,5.16-14.51,14.51-14.56,2.99,0,5.49.92,7.39,2.12v-10.32c0-3.8-.71-4.35-2.17-5v-.6l5.98-2.61.43.38v36.62c0,4.46.49,5.71,2.17,6.19v.71h-4.78c-1.03,0-1.63-.6-1.63-1.63v-3.1c-2.66,2.77-6.03,5.38-9.89,5.32-6.74-.05-12.01-5.87-12.01-13.53ZM169.19,44.12c2.83,0,5.33-1.47,7.44-3.64v-13.31c-.49-3.53-4.51-7.44-9.07-7.44-5.76,0-8.75,4.51-8.75,10.27,0,6.36,2.99,14.13,10.38,14.13Z"/>
      <path d="M195.49,8.85v-.71h8.48v.71c-1.63.49-1.25,1.58.38,5.71l10.49,26.9,10.32-26.84c1.36-3.59,1.14-5.38-.71-5.76v-.71h6.09v.71c-1.47.49-2.83,1.58-4.4,5.71l-12.33,31.9h-1.52l-12.71-31.9c-1.63-4.13-2.93-5.22-4.08-5.71Z"/>
      <path d="M232,45.48c1.68-.49,2.17-1.74,2.17-6.19v-12.5c0-3.8-.65-4.35-2.17-5v-.6l5.98-2.61.43.38v20.32c0,4.46.54,5.71,2.17,6.19v.71h-8.58v-.71ZM232.98,12.28c0-1.74,1.3-3.04,2.99-3.04s2.99,1.3,2.99,3.04c0,1.63-1.3,2.99-2.99,2.99s-2.99-1.36-2.99-2.99Z"/>
      <path d="M244.22,45.48c1.68-.49,2.17-1.74,2.17-6.19v-12.5c0-3.8-.65-4.35-2.17-5v-.6l5.98-2.61.43.38v4.67c3.15-2.55,7.34-5,11.52-5,5.32,0,8.58,3.1,8.58,9.45v11.19c0,4.46.54,5.71,2.17,6.19v.71h-8.58v-.71c1.68-.49,2.17-1.74,2.17-6.19v-10.11c0-5.65-2.39-8.75-7.17-8.75-2.99,0-5.92,1.79-8.69,4.08v14.78c0,4.46.54,5.71,2.17,6.19v.71h-8.58v-.71Z"/>
    </g>
    <g>
      <path class="cls-1" d="M1.92,120.64c0-11.72,15.68-27.68,27.68-27.68,1.91,0,3.46.14,5.37.57,1.06-4.38,1.62-8.54,1.62-11.93,0-3.88-1.34-5.79-4.03-5.79-2.33,0-5.58,2.33-8.83,5.58l-.64-.64c5.93-5.93,10.59-8.97,14.55-8.97,5.23,0,6.5,4.1,6.5,7.63,0,15.11-20.9,50-34.39,50-4.66,0-7.84-3.88-7.84-8.76ZM14.28,125.66c7.56,0,14.97-13.13,19.07-26.27-3.32-1.62-6.78-2.75-10.31-2.75-8.47,0-14.12,11.86-13.77,22.39.07,3.04,1.34,6.64,5.01,6.64Z"/>
      <path class="cls-1" d="M35.67,121c0-12.36,16.1-28.04,27.68-27.96,3.67,0,5.44,1.84,5.44,4.38,0,4.87-5.16,9.11-25.71,22.03.64,3.32,3.11,5.23,6.64,5.23,2.82,0,5.65-.85,9.82-4.45l.64.64c-5.93,5.23-12.29,8.47-15.96,8.47-6.36.07-8.54-4.94-8.54-8.33ZM42.94,118.38c15.18-9.53,18.71-13.84,18.71-18.43,0-2.19-1.41-3.95-4.17-3.95-7.49,0-14.9,12.78-14.55,22.1v.28Z"/>
      <path class="cls-1" d="M83.12,128.2c0-.49,2.61-2.97,4.17-4.24l.78-.64c1.84-1.55,3.32-4.17,4.52-6.29,3.6-6.29,6-11.72,8.69-17.23h-7.06v-1.13h7.56c1.77-3.67,3.67-7.42,6.07-11.58,1.84-3.25,3.6-5.51,7.63-7.34l2.61-1.2h-20.41c-2.47,0-3.39.92-5.01,2.82l-.64-.35c2.54-3.53,4.02-6.14,5.72-7.63,1.06-.85,2.47-1.06,3.53-1.06h42.58c2.82,0,3.95.92,3.95,2.47.07,2.61-3.25,5.93-8.62,9.96l-.56-.85c2.19-1.48,3.6-2.89,3.6-3.95,0-1.41-1.34-1.41-3.81-1.41h-17.51c-2.26,1.84-3.46,4.03-4.87,6.43-2.9,5.01-4.94,9.39-6.99,13.7h20.55v1.13h-21.04c-2.12,4.59-4.24,9.18-7.2,14.41-1.84,3.25-3.67,5.23-6.99,6.99l-3.46,1.84,10.73-.57c.71,0,.78.14.78.42,0,.64-2.4,4.59-3.53,5.44-.49.42-1.2.49-2.05.49h-12.92c-.71,0-.78-.35-.78-.64Z"/>
      <path class="cls-1" d="M126.83,127.07c4.66-7.91,13.98-24.79,13.98-28.18,0-1.13-.49-1.77-1.77-1.77-1.34,0-3.81,1.48-6.71,4.17l-.64-.71c5.86-5.44,9.96-7.63,12.57-7.63,2.82,0,3.81,1.98,3.81,3.67s-1.13,4.94-2.68,8.62c5.01-7.13,10.59-12.29,17.44-12.29,1.55,0,4.87.35,4.87,1.7,0,1.69-2.47,5.16-5.3,5.16-2.4,0-4.94-.49-9.32-1.77-3.32,2.47-7.49,7.91-11.3,14.76-3.25,6.43-6.85,12.71-8.4,15.04-.42.71-.92.99-1.69.99h-4.02c-1.06,0-1.48-.71-.85-1.77Z"/>
      <path class="cls-1" d="M181.49,124.95c0-4.94,3.25-11.51,6.71-17.44-10.66,12.92-19.91,22.1-24.43,21.89-3.11-.14-4.59-2.75-4.52-6.5.21-13.35,15.04-29.94,29.66-29.94,2.47,0,7.49.5,10.95,1.55l1.2.35c.99.28,1.27.92.71,1.77-2.47,3.67-6.14,9.6-8.62,14.41-2.33,4.73-4.1,8.47-4.1,11.79,0,1.27.56,2.05,1.84,2.05,1.48,0,3.81-1.55,6.21-3.81l.64.71c-5.86,5.44-9.75,7.63-11.93,7.63-3.39,0-4.31-2.68-4.31-4.45ZM168.36,124.88c3.18,0,12.08-8.83,24.5-24.79l.92-1.41c-3.53-1.41-8.54-2.83-11.3-2.83-9.96,0-16.17,18.01-16.17,25.07,0,1.34.07,3.96,2.05,3.96Z"/>
      <path class="cls-1" d="M199.5,127.07c4.66-7.91,13.98-24.79,13.98-28.18,0-1.13-.49-1.77-1.77-1.77-1.34,0-3.81,1.48-6.71,4.17l-.64-.71c5.86-5.44,9.96-7.63,12.57-7.63,2.82,0,3.81,1.98,3.81,3.67,0,3.04-3.39,10.52-6.99,17.51,3.46-4.45,6.99-8.33,10.31-11.58,6.21-6,11.86-9.6,15.32-9.6,2.26,0,3.74,1.84,3.74,4.1.07,6.64-11.72,21.68-11.72,25.78,0,1.27.64,2.05,1.98,2.05,1.41,0,3.67-1.55,6.07-3.81l.64.71c-5.86,5.44-9.75,7.63-11.93,7.63-3.39,0-4.31-2.68-4.31-4.45,0-7.91,11.86-21.26,11.86-25.85,0-1.13-.49-1.98-1.77-1.98-2.19,0-5.23,2.4-9.25,6.14-4.59,4.38-9.89,10.59-14.12,16.81-1.91,3.53-3.6,6.36-4.52,7.77-.42.71-.92.99-1.69.99h-4.02c-1.06,0-1.48-.71-.85-1.77Z"/>
      <path class="cls-1" d="M244.34,121c0-12.78,14.76-27.96,28.46-27.96,2.47,0,6.57.49,6.57,1.84,0,2.68-2.82,5.08-5.01,5.08-2.33,0-6.14-1.41-11.3-3.46-5.58,1.91-11.58,12.71-11.23,21.61.14,4.1,2.54,6.57,6.57,6.57,2.82,0,5.65-.85,9.82-4.45l.64.64c-5.93,5.23-12.29,8.47-15.96,8.47-6.36.07-8.54-4.94-8.54-8.33Z"/>
      <path class="cls-1" d="M272.58,121c0-12.36,16.1-28.04,27.68-27.96,3.67,0,5.44,1.84,5.44,4.38,0,4.87-5.16,9.11-25.71,22.03.64,3.32,3.11,5.23,6.64,5.23,2.82,0,5.65-.85,9.82-4.45l.64.64c-5.93,5.23-12.29,8.47-15.96,8.47-6.36.07-8.54-4.94-8.54-8.33ZM279.86,118.38c15.18-9.53,18.71-13.84,18.71-18.43,0-2.19-1.41-3.95-4.17-3.95-7.49,0-14.9,12.78-14.55,22.1v.28Z"/>
    </g>
  </g>
</svg>