<?xml version="1.0" encoding="UTF-8"?>
<svg id="Calque_2" data-name="Calque 2" xmlns="http://www.w3.org/2000/svg" viewBox="0 0 112.6 62.47">
  <defs>
    <style>
      .cls-1 {
        fill: #fff;
      }

      .cls-2 {
        fill: none;
        stroke: #fff;
        stroke-miterlimit: 10;
      }
    </style>
  </defs>
  <g id="Calque_1-2" data-name="Calque 1">
    <g>
      <path class="cls-1" d="M1.81,4.09v7.33c0,1.91.4,2.38,1.15,2.58v.22H.87v-.22c.5-.15.67-.54.67-1.91v-7.46c0-1.37-.2-1.76-.87-1.91v-.22h1.64l7.31,9.47v-6.67c0-1.91-.4-2.37-1.15-2.58v-.22h2.11v.22c-.52.15-.67.54-.67,1.91v9.72h-.22L1.81,4.09Z"/>
      <path class="cls-1" d="M11.79,10.15c0-2.61,2.09-4.42,4.38-4.42,2.07,0,4.37,1.27,4.37,4.25s-2.39,4.4-4.37,4.4c-2.12,0-4.38-1.32-4.38-4.23ZM19.26,10.97c0-2.16-1.52-5.03-3.71-4.92-1.71.07-2.48,1.47-2.48,3.14,0,2.12,1.37,4.83,3.6,4.83,1.79,0,2.59-1.44,2.59-3.06Z"/>
      <path class="cls-1" d="M22.67,11.99v-5.9h-1.07v-.23l2.14-2.06h.23v2.06h2.54l-.08.23h-2.46v5.9c0,1.14.47,1.57,1.19,1.57.47,0,1.05-.22,1.61-.87l.15.15c-.72.82-1.57,1.54-2.56,1.54-1.05,0-1.69-.65-1.69-2.39Z"/>
      <path class="cls-1" d="M27.49,14c.52-.15.67-.54.67-1.91v-3.85c0-1.17-.22-1.34-.67-1.54v-.18l1.82-.8.15.12v2.09c.27-.65.72-1.22,1.22-1.59.52-.38,1.1-.6,1.91-.6.67,0,1.09.17,1.09.45,0,.37-.37.95-.97.95-.45,0-1.1-.18-2.09-.47-.48.35-1.09,1.29-1.14,2.09h-.02v3.33c0,1.37.17,1.76.67,1.91v.22h-2.64v-.22Z"/>
      <path class="cls-1" d="M33.76,10.28c0-2.73,2.06-4.55,4.4-4.55,2.11,0,3.33,1.37,3.38,2.96h-6.54c-.03.25-.05.5-.05.77,0,2.29,1.42,3.86,3.6,3.86,1.29,0,2.21-.58,2.98-1.46l.15.15c-.85,1.17-2.16,2.36-3.95,2.36s-3.96-1.34-3.96-4.1ZM40.2,8.48c-.17-1.12-1.07-2.44-2.59-2.44-1.42-.02-2.29,1.04-2.56,2.44h5.15Z"/>
      <path class="cls-1" d="M47.54,13.13l-.55,1.09h-.17V3.23c0-1.17-.22-1.34-.67-1.54v-.18l1.82-.8.15.12v6.05c.89-.6,1.97-1.14,3.13-1.14,2.12,0,3.65,1.72,3.65,4.08s-1.55,4.53-4.35,4.55c-1.25,0-2.41-.58-3.01-1.24ZM51.08,14.03c1.74,0,2.58-1.3,2.58-3.25s-.84-4.5-3.19-4.5c-.87,0-1.66.37-2.34.84v4.26c0,1.2,1.42,2.64,2.96,2.64Z"/>
      <path class="cls-1" d="M56.05,10.15c0-2.61,2.09-4.42,4.38-4.42,2.07,0,4.37,1.27,4.37,4.25s-2.39,4.4-4.37,4.4c-2.12,0-4.38-1.32-4.38-4.23ZM63.52,10.97c0-2.16-1.52-5.03-3.71-4.92-1.71.07-2.48,1.47-2.48,3.14,0,2.12,1.37,4.83,3.6,4.83,1.79,0,2.59-1.44,2.59-3.06Z"/>
      <path class="cls-1" d="M66.6,11.34v-3.09c0-1.17-.22-1.34-.67-1.54v-.18l1.82-.8.15.12v5.2c0,1.91.54,2.76,1.87,2.76.99,0,1.89-.62,2.64-1.42v-4.13c0-1.17-.22-1.34-.67-1.54v-.18l1.82-.8.15.12v6.25c0,1.37.15,1.76.67,1.91v.22h-1.42c-.37,0-.55-.18-.55-.67v-.85c-.85.89-2.01,1.69-3.26,1.69-1.76,0-2.56-1.12-2.56-3.04Z"/>
      <path class="cls-1" d="M76.45,11.99v-5.9h-1.07v-.23l2.14-2.06h.23v2.06h2.54l-.08.23h-2.46v5.9c0,1.14.47,1.57,1.19,1.57.47,0,1.05-.22,1.61-.87l.15.15c-.72.82-1.57,1.54-2.56,1.54-1.05,0-1.69-.65-1.69-2.39Z"/>
      <path class="cls-1" d="M81.26,14c.52-.15.67-.54.67-1.91v-3.85c0-1.17-.2-1.34-.67-1.54v-.18l1.84-.8.13.12v6.25c0,1.37.17,1.76.67,1.91v.22h-2.64v-.22ZM81.56,3.78c0-.54.4-.94.92-.94s.92.4.92.94c0,.5-.4.92-.92.92s-.92-.42-.92-.92Z"/>
      <path class="cls-1" d="M85.09,10.23c0-2.32,1.59-4.46,4.47-4.48,1.25,0,2.24.54,2.84,1.1l.64-1h.12v10.75c0,1.37.15,1.76.67,1.91v.22h-2.64v-.22c.5-.15.67-.54.67-1.91v-3.86c-.82.87-1.86,1.67-3.06,1.66-2.07-.02-3.7-1.81-3.7-4.16ZM89.54,13.58c.89,0,1.66-.45,2.31-1.14v-3.85c0-1.15-1.3-2.53-2.84-2.53-1.76,0-2.66,1.39-2.66,3.16,0,1.96.92,4.35,3.19,4.35Z"/>
      <path class="cls-1" d="M95.24,11.34v-3.09c0-1.17-.22-1.34-.67-1.54v-.18l1.82-.8.15.12v5.2c0,1.91.54,2.76,1.87,2.76.99,0,1.89-.62,2.64-1.42v-4.13c0-1.17-.22-1.34-.67-1.54v-.18l1.82-.8.15.12v6.25c0,1.37.15,1.76.67,1.91v.22h-1.42c-.37,0-.55-.18-.55-.67v-.85c-.85.89-2.01,1.69-3.26,1.69-1.76,0-2.56-1.12-2.56-3.04Z"/>
      <path class="cls-1" d="M104.22,10.28c0-2.73,2.06-4.55,4.4-4.55,2.11,0,3.33,1.37,3.38,2.96h-6.54c-.03.25-.05.5-.05.77,0,2.29,1.42,3.86,3.6,3.86,1.29,0,2.21-.58,2.98-1.46l.15.15c-.85,1.17-2.16,2.36-3.95,2.36s-3.96-1.34-3.96-4.1ZM110.66,8.48c-.17-1.12-1.07-2.44-2.59-2.44-1.42-.02-2.29,1.04-2.56,2.44h5.15Z"/>
    </g>
    <line class="cls-2" x1="56.3" y1="30.28" x2="56.3" y2="62.47"/>
  </g>
</svg>