<?xml version="1.0" encoding="UTF-8"?>
<svg id="Calque_2" data-name="Calque 2" xmlns="http://www.w3.org/2000/svg" viewBox="0 0 32.51 49.41">
  <defs>
    <style>
      .cls-1 {
        fill: #b4a379;
      }
    </style>
  </defs>
  <g id="Calque_1-2" data-name="Calque 1">
    <g>
      <path class="cls-1" d="M16.04,6.34l-1.51-.97c-1.64-.71-3.7-.68-5.35-.03.98.04,1.94.42,2.78.91.52.31,3.05,2.23,3.13,2.68.08.4-.42,1.8-.61,2.23-2.55,5.7-9.29-1.74-11.41-4.24C1.97,5.62.97,4.24,0,2.86c2.33-.46,4.64-1.14,7.02-1.37,3.56-.35,9.95-.44,9.02,4.85Z"/>
      <path class="cls-1" d="M20.87,26c4.63-.53,5.77,6.22,1.4,7.31-5.13,1.28-6.52-6.72-1.4-7.31Z"/>
      <path class="cls-1" d="M16.33,18.4c4.9-.48,5.52,7.08.6,7.46s-5.53-6.98-.6-7.46Z"/>
      <path class="cls-1" d="M28.03,19.46c3.26,3.25-1.36,8.55-5.03,5.5-3.98-3.31,1.43-9.09,5.03-5.5Z"/>
      <path class="cls-1" d="M5,24.66c-3.49-3.81,2.68-8.95,5.77-4.76,2.77,3.75-2.66,8.16-5.77,4.76Z"/>
      <path class="cls-1" d="M9.54,27.06c3.55-3.68,9.14,2.27,4.97,5.55-3.66,2.88-8.17-2.24-4.97-5.55Z"/>
      <path class="cls-1" d="M16.65,33.59c5.87-.85,5.8,8.11.11,7.33-4.05-.56-4.07-6.76-.11-7.33Z"/>
      <path class="cls-1" d="M32.26.14c.42.34.28,1.13-.19,1.39-4.7,1.5-14.33,5.22-14.75,11-.04.57.1.97.1,1.46,0,1.06-1.37,1.28-1.57.29-1.34-6.61,7.28-11.11,12.3-13.09C28.91.89,31.14-.03,31.82,0c.16,0,.32.04.45.14Z"/>
      <path class="cls-1" d="M8.69,35.61c2.06-2.32,5.73.9,3.61,3.24s-5.71-.86-3.61-3.24Z"/>
      <path class="cls-1" d="M12.43,40.56c3.62-.52,3.79,5.26-.12,4.71-2.46-.35-2.54-4.33.12-4.71Z"/>
      <path class="cls-1" d="M20.76,14.17c2.61-.44,3.25,3.54.79,3.96-2.79.47-3.29-3.54-.79-3.96Z"/>
      <path class="cls-1" d="M10.91,14.71c.99-.92,2.72-.62,3.24.64.7,1.71-.97,3.4-2.71,2.61-1.21-.55-1.5-2.35-.53-3.25Z"/>
      <path class="cls-1" d="M17.34,45.14c-1.39-1.7.76-4.26,2.75-2.9,1.61,1.1.71,3.77-1.31,3.63-.45-.03-1.16-.38-1.44-.72Z"/>
      <path class="cls-1" d="M14.28,45.95c.51-.47,1.51-.64,2.15-.38,2.02.84,1.42,4.08-1.08,3.82-1.64-.17-2.26-2.34-1.07-3.45Z"/>
    </g>
  </g>
</svg>